<svg id="Capa_1" enable-background="new 0 0 512 512" height="512" viewBox="0 0 512 512" width="512" xmlns="http://www.w3.org/2000/svg"><g><path d="m255.451 386.393h15.032v15.032h-15.032z"/><path d="m105.4 309.434c3.72-3.305 7.442-6.246 11.061-8.739l-8.529-12.378c-4.125 2.842-8.337 6.166-12.516 9.88z"/><path d="m128.564 293.357c3.832-2.035 8.156-3.971 12.852-5.756l-5.34-14.051c-5.279 2.006-10.179 4.204-14.562 6.531z"/><path d="m510.526 243.651c-2.73-9.316-8.954-16.948-17.228-21.459 4.57-18.543-8.774-39.284-27.543-42.81-.823-19.09-19.465-35.251-38.477-33.357-6.17-18.061-28.577-28.305-46.274-21.151-11.023-15.599-35.438-19.092-50.396-7.215-14.957-11.874-39.373-8.386-50.395 7.215-17.693-7.152-40.105 3.09-46.273 21.15-19.014-1.891-37.653 14.265-38.477 33.354-14.296 2.792-26.222 15.785-28.024 30.203-13.445-3.175-28.673 2.421-36.696 13.514-17.693-7.152-40.105 3.09-46.273 21.15-19.012-1.886-37.656 14.264-38.477 33.357-18.77 3.529-32.114 24.267-27.543 42.81-8.275 4.51-14.498 12.142-17.228 21.457-6.364 18.971 13.767 42.925 22.082 59.556h217.113v-15.032h-201.884c12.896-178.495 272.374-178.371 285.214 0h-38.232v15.032h53.46l14.957-26.096c7.499-12.806 10.565-21.724 7.125-33.457-2.73-9.316-8.953-16.948-17.228-21.459 4.57-18.544-8.774-39.284-27.544-42.81-.821-19.093-19.465-35.243-38.476-33.357-6.169-18.06-28.58-28.306-46.274-21.151-4.071-5.45-9.604-9.6-15.978-12.012 76.993-107.596 252.352-54.683 257.658 77.088h-118.2l6.016 15.032h127.412l14.957-26.095c7.901-12.452 10.566-21.724 7.126-33.457zm-128.322-102.649c12.149-8.409 30.508-.015 32.095 14.677 0 0 .957 6.847.957 6.847-11.921-7.604-24.927-13.649-38.728-17.853zm-27.042-15.258c10.477 1.434 15.394 9.086 18.898 18.193-13.395-3.841-27.514-5.944-42.098-6.068 5.841-7.715 12.855-13.705 23.2-12.125zm-49.104 0c10.356-1.581 17.357 4.416 23.202 12.13-14.446.122-28.58 2.184-42.086 6.031 3.495-9.099 8.433-16.734 18.884-18.161zm-47.097 13.832c9.501-4.453 17.903-.664 25.701 5.078-13.675 4.143-26.68 10.112-38.681 17.74.789-9.732 3.331-18.479 12.98-22.818zm-72.202 61.898c5.801-7.63 14.571-8.332 23.423-7.837-4.081 4.824-7.894 9.93-11.427 15.29-5.991.649-11.695 2.796-16.623 6.245-.145-4.879 1.453-9.71 4.627-13.698zm-30.17 22.491c10.357-1.583 17.355 4.414 23.199 12.127-14.584.123-28.704 2.226-42.099 6.068 3.502-9.109 8.43-16.765 18.9-18.195zm-47.097 13.833c9.517-4.46 17.923-.65 25.731 5.098-13.801 4.205-26.808 10.249-38.729 17.853.827-9.83 3.242-18.531 12.998-22.951zm-89.564 127.941c-9.478-12.182-4.787-29.599 9.927-33.86-.001 0 7.058-2.05 7.058-2.05-5.952 13.344-10.101 27.66-12.145 42.638zm17.728-37.55c-4.642-8.803-7.573-17.643-1.624-26.737 5.821-9.128 14.904-10.169 24.808-9.593-9.29 10.935-17.12 23.145-23.184 36.33zm24.56-37.936c-1.991-9.687-2.203-18.917 5.976-25.913 7.935-7.022 17.15-5.636 26.32-2.299-12.005 7.913-22.873 17.415-32.296 28.212zm284.417 55.848c2.025 12.488-9.121 26.366-9.121 26.366-2.044-14.978-6.193-29.293-12.145-42.637 9.051 2.144 19.635 5.957 21.266 16.271zm-37.958-54.273c14.74-.46 25.604 16.493 19.019 29.693 0 0-3.069 6.67-3.069 6.67-6.064-13.186-13.894-25.396-23.184-36.331 0 0 7.202-.032 7.234-.032zm-34.257-31.765c14.049-4.665 29.32 8.581 26.692 23.146 0 0-1.044 7.045-1.044 7.045-9.423-10.798-20.292-20.299-32.297-28.213zm-41.683-20.84c12.155-8.409 30.506-.014 32.095 14.677 0 0 .957 6.848.957 6.848-11.921-7.604-24.928-13.649-38.729-17.853zm-10.928-3.209 2.785 6.145c-13.395-3.841-27.515-5.944-42.1-6.068l4.352-5.07c9.275-11.525 29.282-8.665 34.963 4.993zm-10.138-44.086c-1.991-9.653-2.146-18.846 5.992-25.809 7.883-6.97 17.061-5.669 26.185-2.339-11.856 7.807-22.688 17.251-32.177 28.148zm205.57-28.108c9.18-3.336 18.377-4.723 26.32 2.299 8.176 6.99 7.968 16.238 5.975 25.913-9.422-10.797-20.29-20.299-32.295-28.212zm33.672 29.818c9.867-.591 19.041.499 24.807 9.594 5.948 9.086 3.015 17.947-1.624 26.737-6.063-13.186-13.893-25.396-23.183-36.331zm40.911 73.88-4.841 6.728c-2.043-14.978-6.192-29.293-12.144-42.637l7.057 2.05c14.307 3.675 19.677 19.744 9.928 33.859z"/><path d="m254.869 211.212c3.721-3.305 7.442-6.246 11.061-8.739l-8.528-12.378c-4.126 2.842-8.337 6.166-12.517 9.88z"/><path d="m278.034 195.135c3.831-2.035 8.155-3.971 12.851-5.756l-5.339-14.051c-5.281 2.006-10.18 4.204-14.562 6.531z"/></g></svg>