<?xml version="1.0" standalone="no"?>
<!DOCTYPE svg PUBLIC "-//W3C//DTD SVG 20010904//EN"
 "http://www.w3.org/TR/2001/REC-SVG-20010904/DTD/svg10.dtd">
<svg version="1.0" xmlns="http://www.w3.org/2000/svg"
 width="408.000000pt" height="183.000000pt" viewBox="0 0 408.000000 183.000000"
 preserveAspectRatio="xMidYMid meet">
<metadata>
Created by potrace 1.16, written by Peter Selinger 2001-2019
</metadata>
<g transform="translate(0.000000,183.000000) scale(0.100000,-0.100000)"
fill="#000000" stroke="none">
<path d="M2423 1493 c3 -10 16 -52 29 -93 21 -67 23 -94 23 -255 -1 -163 -3
-190 -28 -285 -39 -150 -82 -272 -102 -286 -9 -7 -15 -17 -12 -21 9 -14 -25
-134 -36 -130 -32 10 -157 322 -157 390 0 9 -13 56 -29 104 -16 49 -32 104
-36 123 -3 19 -25 71 -48 115 -44 83 -59 94 -111 81 -23 -6 -56 -62 -56 -95 0
-32 42 -131 55 -131 8 0 12 14 11 37 -1 44 28 60 39 21 4 -13 20 -51 36 -84
16 -34 29 -68 29 -75 0 -8 12 -45 26 -84 14 -38 40 -122 59 -185 18 -63 40
-135 49 -160 10 -25 18 -49 20 -55 17 -57 74 -115 113 -115 41 0 67 30 58 69
-4 19 -1 40 9 60 9 16 16 38 16 48 0 10 9 37 20 58 18 36 93 252 119 345 5 19
17 53 25 75 8 22 15 54 16 71 0 17 7 37 15 44 11 9 12 16 4 26 -7 8 -9 35 -5
73 4 36 2 62 -4 66 -5 3 -10 21 -10 40 0 19 -4 36 -9 39 -4 3 -11 23 -14 45
-4 31 -16 51 -56 90 -56 55 -66 61 -58 34z"/>
<path d="M952 1195 c-142 -39 -402 -213 -402 -269 0 -12 9 -32 20 -44 18 -19
33 -22 103 -24 199 -4 283 -12 342 -28 17 -5 52 -15 78 -22 104 -27 108 -90
11 -185 -29 -29 -72 -62 -96 -73 -24 -11 -55 -31 -69 -44 -41 -38 -213 -118
-256 -120 l-38 -1 1 46 c3 86 44 136 176 216 43 26 78 50 78 54 0 9 -60 2
-110 -13 -45 -14 -118 -62 -150 -100 -31 -37 -60 -113 -60 -155 0 -41 33 -118
55 -127 29 -11 62 -7 130 15 48 16 71 30 90 55 17 23 34 34 51 34 46 0 114 49
114 81 0 10 31 43 71 75 119 96 149 160 111 231 -23 43 -58 68 -122 87 -57 17
-265 43 -359 45 -58 2 -94 15 -89 34 5 15 155 117 235 159 52 27 66 31 90 23
34 -12 44 -57 18 -85 -28 -31 0 -31 57 0 61 33 83 66 68 104 -5 13 -12 26 -17
29 -22 14 -84 15 -131 2z"/>
<path d="M2695 843 c-101 -53 -155 -169 -117 -251 20 -43 34 -57 81 -77 76
-34 148 -7 238 89 34 36 64 66 67 66 7 0 19 -55 20 -98 1 -44 22 -72 54 -72
11 0 12 17 6 90 -8 105 5 143 62 187 30 22 39 25 55 15 17 -11 19 -9 19 13 0
20 -7 26 -39 36 -58 17 -100 -9 -126 -81 l-19 -54 -18 42 c-13 29 -25 42 -38
42 -24 0 -24 -3 -5 -58 l15 -43 -32 -29 c-18 -17 -38 -30 -45 -30 -7 0 -28
-14 -48 -31 -65 -57 -149 -67 -174 -20 -20 36 -13 50 28 57 24 4 55 21 85 46
41 36 46 44 46 82 0 51 -30 96 -63 96 -12 -1 -35 -8 -52 -17z"/>
<path d="M1404 831 c-23 -14 -37 -34 -50 -73 l-17 -53 -18 43 c-13 30 -24 42
-39 42 -27 0 -26 -9 12 -88 21 -45 32 -85 33 -120 2 -38 7 -57 21 -67 41 -31
46 -21 39 73 -8 104 6 146 61 188 29 23 39 26 54 16 14 -8 19 -8 23 2 7 19 -4
33 -36 45 -38 15 -47 14 -83 -8z"/>
<path d="M3515 774 c-8 -20 -17 -80 -19 -135 -4 -89 -2 -99 13 -99 24 0 61 42
61 69 0 26 32 92 54 110 12 10 17 8 26 -10 9 -16 9 -31 0 -64 -15 -54 -5 -120
23 -146 25 -23 40 -24 57 -4 10 12 9 18 -5 31 -11 12 -15 27 -11 48 23 136 12
206 -34 221 -24 8 -70 -18 -70 -39 0 -13 -31 -46 -44 -46 -4 0 -7 10 -6 23 4
45 0 65 -15 71 -10 4 -20 -6 -30 -30z"/>
<path d="M3300 785 c-7 -8 -20 -15 -29 -15 -26 0 -58 -34 -71 -76 -11 -32 -10
-38 4 -46 10 -5 16 -22 16 -43 0 -65 58 -95 133 -68 66 24 92 60 83 119 -8 64
-31 101 -76 124 -47 24 -44 24 -60 5z"/>
</g>
</svg>
