<?xml version="1.0" encoding="UTF-8"?>
<svg xmlns="http://www.w3.org/2000/svg" width="512" height="512" viewBox="0 0 128 128"><path d="M109,86.505h-2.89A22.463,22.463,0,0,0,68.1,72.1a22.3,22.3,0,0,0-19.4-5.981V41.664a12.149,12.149,0,0,0,8.679-5.712l46.149.7h.113a7.114,7.114,0,0,0,0-14.227h-.113l-46.149.7a12.152,12.152,0,0,0-8.7-5.718,5.227,5.227,0,0,0-8.753-3.633,5.173,5.173,0,0,0-7.02,0,5.223,5.223,0,0,0-8.741,3.505H19a1.749,1.749,0,0,0-1.75,1.75V40.047A1.749,1.749,0,0,0,19,41.8h5.12V57.47a11.567,11.567,0,0,1-6.593,10.474,1.752,1.752,0,0,0-.716,2.512L20.892,76.9a1.749,1.749,0,0,0,2.248.634,20.539,20.539,0,0,0,8.01-6.948V81.26a22.392,22.392,0,0,0-1.058,5.245H19a1.749,1.749,0,0,0-1.75,1.75,22.5,22.5,0,0,0,22.471,22.472H88.279A22.5,22.5,0,0,0,110.75,88.255,1.749,1.749,0,0,0,109,86.505ZM83.709,69.283A19,19,0,0,1,102.6,86.505H98.489a14.877,14.877,0,0,0-25.85-8.194,22.062,22.062,0,0,0-2.213-3.574A18.966,18.966,0,0,1,83.709,69.283ZM80.125,86.505a3.99,3.99,0,0,1,7.167,0Zm10.858,0a7.481,7.481,0,0,0-14.549,0H74.911c-.053-.676-.146-1.349-.26-2.022-.033-.2-.076-.388-.114-.582q-.146-.739-.338-1.472c-.029-.106-.044-.215-.074-.322a11.39,11.39,0,0,1,20.842,4.4Zm-36.2-60.83a1.726,1.726,0,0,0,1.6.974l47.2-.719a3.391,3.391,0,0,1,2.591,1.038,3.614,3.614,0,0,1-2.533,6.188h-.058l-47.2-.719a1.738,1.738,0,0,0-1.6.975A8.71,8.71,0,0,1,48.7,38.122V20.963A8.705,8.705,0,0,1,54.787,25.675ZM43.43,15.91a1.792,1.792,0,0,1,1.252.516A1.764,1.764,0,0,1,45.2,17.68v1.309c0,.017-.005.033-.005.049V40.047c0,.017.005.032.005.048V67.024a22.043,22.043,0,0,0-3.53,1.563V17.68A1.767,1.767,0,0,1,43.43,15.91ZM20.75,27.791h3.37v3.5H20.75Zm0-7h3.37v3.5H20.75Zm0,17.509v-3.5h3.37v3.5ZM22.972,73.64l-2.219-3.5A15.016,15.016,0,0,0,27.62,57.47V17.68a1.767,1.767,0,0,1,1.76-1.77,1.765,1.765,0,0,1,1.77,1.77V59.13A16.866,16.866,0,0,1,22.972,73.64ZM34.65,17.68a1.76,1.76,0,1,1,3.52,0V70.966a22.443,22.443,0,0,0-3.52,3.649V17.68Zm-.094,64.4a18.88,18.88,0,0,1,6.429-8.9A19,19,0,0,1,52.5,69.28a18.966,18.966,0,0,1,14.286,6.5,18.621,18.621,0,0,1,3.767,6.6c0,.012,0,.024.007.035.027.082.044.166.069.248q.233.77.4,1.549c.04.182.074.364.108.546.086.464.154.929.207,1.4.013.119.03.238.041.358H67.3a14.9,14.9,0,0,0-29.052-2.558,14.919,14.919,0,0,0-.53,2.558H33.6A18.857,18.857,0,0,1,34.556,82.078Zm14.359,4.427a3.986,3.986,0,0,1,7.17,0Zm10.859,0a7.478,7.478,0,0,0-14.549,0H41.248a11.24,11.24,0,0,1,.347-1.548,11.4,11.4,0,0,1,6.1-7.032,11.366,11.366,0,0,1,16.058,8.58Zm28.5,20.722H39.721A19,19,0,0,1,20.83,90.005H31.721c.016,0,.032.005.048.005H39.36c.017,0,.032-.005.049-.005h7.3c.017,0,.032.005.049.005H58.24c.017,0,.032-.005.049-.005H65.6c.016,0,.032.005.048.005h31.2c.016,0,.032-.005.048-.005h7.487c.016,0,.032.005.048.005s.033-.005.049-.005h2.686A19,19,0,0,1,88.279,107.227Z"/></svg>
