<svg id="Capa_1" enable-background="new 0 0 64 64" height="512" viewBox="0 0 64 64" width="512" xmlns="http://www.w3.org/2000/svg"><path id="Shape" d="m61.867 38.4h-.373c.669-1.362.427-2.996-.608-4.107.911-.861 1.222-2.183.789-3.36.648.03 1.274-.237 1.702-.725s.61-1.143.496-1.782c-1.42-7.626-14.198-13.205-30.614-13.493h-1.259c-17.013 0-30.421 5.675-31.872 13.493-.114.638.068 1.294.496 1.782s1.054.754 1.702.725c-.415 1.178-.107 2.49.789 3.36-1.029 1.113-1.271 2.743-.608 4.107h-.374c-1.178 0-2.133.955-2.133 2.133 0 4.713 3.821 8.533 8.533 8.533h46.933c4.713 0 8.533-3.821 8.533-8.533.001-1.178-.954-2.133-2.132-2.133zm-51.958-3.2h7.925l-3.968 4.267zm10.827 0h4.395l2.976 3.2h-10.347zm7.307 0h7.925l-3.968 4.267zm10.826 0h4.395l2.976 3.2h-10.347zm7.307 0h7.925l-3.968 4.267zm10.827 0h1.131c.884 0 1.6.716 1.6 1.6s-.716 1.6-1.6 1.6h-4.107zm-10.208-16.491-5.515 5.504c-.416.414-1.088.414-1.504 0-.407-.415-.407-1.079 0-1.493l4.544-4.587c.843.203 1.675.384 2.475.576zm-13.12-1.642c.981 0 1.931.064 2.88.128l-7.008 7.019c-.305.299-.758.387-1.153.225-.395-.163-.654-.545-.66-.971.004-.281.119-.55.32-.747zm-9.142.394-6.72 6.752c-.416.414-1.088.414-1.504 0-.407-.415-.407-1.079 0-1.493l4.789-4.789c1.131-.192 2.294-.342 3.435-.47zm-22.304 11.339c.821-4.427 6.688-8.139 15.104-10.144l-2.517 2.528c-.891.788-1.271 2.005-.988 3.159.283 1.155 1.184 2.057 2.338 2.343s2.372-.091 3.162-.98l8.533-8.533c.928-.053 1.856-.085 2.805-.107l-4.117 4.128c-.613.596-.956 1.417-.949 2.272.001 1.293.781 2.459 1.976 2.954s2.57.222 3.486-.692l8.277-8.277c.811.085 1.611.181 2.4.299l-3.456 3.456c-.891.788-1.271 2.005-.988 3.159.283 1.155 1.184 2.057 2.338 2.343s2.372-.091 3.162-.98l6.4-6.4c7.061 2.133 11.861 5.493 12.587 9.451-60.897.021-59.489-.064-59.553.021zm56.438 2.133c.589 0 1.067.478 1.067 1.067s-.478 1.067-1.067 1.067h-53.334c-.589 0-1.067-.478-1.067-1.067s.478-1.067 1.067-1.067zm-54.4 5.867c-.003-.425.165-.834.465-1.135.301-.301.709-.468 1.135-.465h1.131l2.976 3.2h-4.107c-.884 0-1.6-.716-1.6-1.6zm51.2 10.133h-46.934c-3.535 0-6.4-2.865-6.4-6.4h9.813l.416.437c.398.401.939.627 1.504.629.775-.033 1.49-.428 1.931-1.067h14.283l.416.437c.401.407.949.636 1.52.636s1.119-.229 1.52-.636l.384-.437h14.293l.416.437c.398.401.939.627 1.504.629.775-.033 1.49-.428 1.931-1.067h9.803c0 3.537-2.866 6.402-6.4 6.402z"/></svg>